<?xml version="1.0" standalone="no"?>
<!DOCTYPE svg PUBLIC "-//W3C//DTD SVG 20010904//EN"
 "http://www.w3.org/TR/2001/REC-SVG-20010904/DTD/svg10.dtd">
<svg version="1.0" xmlns="http://www.w3.org/2000/svg"
 width="800.000000pt" height="800.000000pt" viewBox="0 0 800.000000 800.000000"
 preserveAspectRatio="xMidYMid meet">
<metadata>
Created by potrace 1.11, written by Peter Selinger 2001-2013
</metadata>
<g transform="translate(0.000000,800.000000) scale(0.100000,-0.100000)"
fill="#000000" stroke="none">
<path d="M4738 5375 c-2 -2 -32 -6 -68 -9 -36 -3 -76 -8 -90 -11 -14 -2 -38
-7 -55 -11 -100 -20 -225 -81 -301 -147 -73 -63 -212 -214 -220 -239 -3 -10
-9 -18 -14 -18 -11 0 -81 -123 -103 -180 -21 -58 -46 -168 -53 -233 -3 -29 -7
-68 -9 -87 -10 -91 -18 -339 -19 -567 -1 -139 -3 -253 -6 -253 -3 0 -3 -27 0
-60 3 -33 2 -60 -3 -60 -4 0 -6 -4 -2 -10 4 -7 7 -171 4 -260 -1 -18 0 -93 2
-135 1 -16 1 -37 0 -45 0 -12 0 -176 0 -235 0 -5 0 -36 -1 -67 -1 -31 0 -60 3
-65 2 -4 1 -17 -3 -28 -4 -11 -4 -34 1 -52 4 -18 4 -35 0 -37 -4 -3 -4 -34 -1
-70 3 -36 3 -74 -1 -83 -3 -10 -3 -29 0 -43 4 -14 4 -43 1 -65 -3 -22 -3 -56
1 -76 3 -19 3 -44 -1 -54 -4 -11 -4 -34 1 -52 4 -18 4 -35 0 -37 -4 -3 -4 -34
-1 -70 3 -36 3 -74 -1 -83 -3 -10 -3 -29 1 -42 3 -14 3 -44 0 -67 -4 -22 -3
-49 0 -59 4 -11 4 -33 0 -49 l-6 -31 -72 0 c-40 0 -72 -2 -72 -5 0 -3 -24 -4
-52 -2 -113 6 -188 7 -188 2 0 -3 -24 -4 -52 -2 -116 6 -188 7 -188 2 0 -3
-24 -4 -52 -2 -113 6 -188 7 -188 2 0 -3 -24 -4 -52 -2 -116 6 -188 7 -188 2
0 -3 -24 -4 -52 -2 -113 6 -188 7 -188 2 0 -3 -20 -4 -44 -2 l-45 4 0 1656
c-1 912 -1 1728 -1 1814 0 179 -2 182 -77 169 -22 -5 -47 -4 -55 0 -8 4 -20 4
-27 0 -7 -5 -29 -5 -50 -1 -21 4 -47 3 -59 -1 -12 -5 -22 -5 -22 -1 0 7 -40 7
-120 1 -20 -2 -40 0 -46 3 -5 4 -16 3 -23 -1 -7 -5 -29 -5 -50 -1 -21 4 -47 3
-59 -1 -12 -5 -24 -4 -26 0 -6 10 -54 2 -61 -9 -4 -7 -6 -57 -4 -140 0 -8 0
-51 0 -95 0 -44 0 -89 0 -100 0 -11 0 -62 -1 -113 0 -51 2 -97 5 -102 3 -5 1
-11 -3 -14 -5 -3 -8 -18 -6 -33 4 -29 5 -101 3 -188 0 -27 0 -54 1 -60 1 -5 2
-13 1 -17 0 -6 -1 -44 -1 -163 0 -11 0 -64 0 -119 0 -54 1 -100 3 -103 3 -2 1
-20 -3 -39 -5 -19 -4 -37 1 -40 5 -3 7 -9 4 -13 -4 -7 -6 -69 -4 -163 0 -19 0
-217 0 -245 0 -10 -1 -45 -1 -77 0 -32 1 -61 4 -63 2 -2 0 -20 -4 -39 -5 -19
-4 -37 1 -40 5 -3 7 -9 4 -13 -4 -7 -6 -69 -4 -163 0 -14 0 -169 0 -240 0 -7
0 -49 0 -93 0 -44 0 -88 0 -97 0 -10 -1 -75 -1 -144 -1 -69 1 -128 3 -131 3
-2 1 -20 -3 -39 -5 -19 -4 -37 1 -40 5 -3 7 -9 4 -13 -4 -7 -6 -69 -4 -163 0
-14 0 -169 0 -240 0 -7 0 -49 0 -93 0 -44 0 -87 0 -95 0 -8 -1 -63 -1 -122 -1
-59 1 -111 5 -117 3 -6 2 -11 -3 -11 -6 0 -7 -13 -3 -33 5 -18 5 -41 1 -51 -3
-11 -4 -35 -1 -55 l6 -36 255 2 c1336 12 2124 21 2475 29 138 3 298 6 357 7
60 1 108 4 108 7 0 3 15 6 33 6 38 1 164 12 192 18 11 2 40 7 65 11 48 8 298
89 340 110 14 7 70 34 125 60 91 44 223 120 235 136 3 3 16 12 30 19 14 7 32
19 40 26 8 7 51 44 95 81 202 171 341 360 456 618 20 46 55 139 65 175 42 154
53 221 70 430 16 187 8 806 -11 880 -2 8 -6 35 -9 60 -3 25 -10 60 -15 78 -5
18 -10 36 -11 40 -10 67 -78 259 -129 363 -41 82 -151 264 -170 279 -3 3 -19
23 -36 45 -43 58 -201 215 -209 208 -3 -3 -6 -2 -6 4 0 12 -137 117 -175 135
-14 6 -25 15 -25 20 0 4 -6 8 -14 8 -8 0 -16 3 -18 8 -1 4 -16 14 -33 23 -202
104 -205 105 -350 129 -44 7 -670 12 -677 5z m592 -328 c8 -2 31 -7 50 -11 79
-17 179 -52 240 -84 84 -44 170 -101 170 -113 0 -5 5 -9 10 -9 25 0 230 -231
230 -259 0 -4 9 -16 20 -26 11 -10 17 -21 15 -26 -3 -4 -1 -10 4 -13 13 -8 53
-88 94 -186 49 -120 92 -269 113 -390 19 -118 23 -143 22 -149 0 -3 0 -8 1
-11 6 -16 13 -164 13 -280 1 -165 -8 -307 -28 -420 -2 -14 -7 -45 -10 -70 -3
-25 -8 -48 -10 -51 -2 -3 -6 -21 -9 -40 -10 -54 -52 -200 -71 -244 -10 -22
-19 -49 -21 -60 -2 -10 -7 -22 -11 -25 -4 -3 -25 -41 -47 -85 -87 -172 -229
-330 -403 -449 -73 -50 -302 -171 -302 -161 0 3 -12 -1 -27 -9 -67 -34 -281
-97 -413 -120 -142 -26 -153 -27 -223 -30 -37 -2 -70 -6 -73 -9 -3 -3 -16 -2
-28 3 -13 4 -28 5 -35 1 -6 -4 -32 -5 -56 -1 -27 4 -48 3 -55 -4 -7 -7 -10 3
-10 34 0 25 -1 52 -1 60 0 8 0 35 0 60 0 25 0 52 0 60 -1 8 0 29 0 45 2 27 3
133 2 160 -1 20 -1 162 -1 223 0 35 -2 68 -5 73 -4 5 -3 9 2 9 7 0 7 22 3 140
0 14 -1 56 0 93 0 38 -2 73 -5 78 -4 5 -3 9 2 9 4 0 7 33 6 73 -3 115 -4 263
-2 273 1 5 1 11 0 14 -5 13 -5 140 -1 140 4 0 4 97 -1 110 -1 3 -1 8 -1 11 1
7 2 87 2 114 -1 90 -1 121 -1 130 4 74 3 106 -1 111 -3 3 -3 17 1 32 4 14 4
45 1 69 -4 24 -4 43 -1 43 3 0 6 111 7 248 1 238 8 409 20 482 22 135 154 291
313 373 49 25 91 43 94 40 3 -3 12 -1 19 3 15 10 25 12 88 20 25 4 46 8 48 9
4 4 243 -4 262 -8z"/>
</g>
</svg>
